<?xml version="1.0" encoding="UTF-8" standalone="no"?>
<svg width="200px" height="201px" viewBox="0 0 200 201" version="1.1" xmlns="http://www.w3.org/2000/svg" xmlns:xlink="http://www.w3.org/1999/xlink">
    <!-- Generator: Sketch 3.6.1 (26313) - http://www.bohemiancoding.com/sketch -->
    <title>饼状图</title>
    <desc>Created with Sketch.</desc>
    <defs></defs>
    <g id="首页" stroke="none" stroke-width="1" fill="none" fill-rule="evenodd">
        <g transform="translate(-755.000000, -505.000000)" id="右">
            <g transform="translate(705.000000, 70.000000)">
                <g id="饼状图" transform="translate(5.000000, 382.000000)">
                    <g transform="translate(45.000000, 53.000000)">
                        <path d="M96.1538462,200 C149.258149,200 192.307692,156.950457 192.307692,103.846154 C192.307692,50.741851 149.258149,7.69230769 96.1538462,7.69230769 C43.0495433,7.69230769 0,50.741851 0,103.846154 C0,156.950457 43.0495433,200 96.1538462,200 Z M96.5384615,168.461538 C132.012136,168.461538 160.769231,139.704444 160.769231,104.230769 C160.769231,68.7570949 132.012136,40 96.5384615,40 C61.0647872,40 32.3076923,68.7570949 32.3076923,104.230769 C32.3076923,139.704444 61.0647872,168.461538 96.5384615,168.461538 Z" id="Combined-Shape" fill="#53C6C6"></path>
                        <path d="M96.1538462,7.69230769 C149.258149,7.69230769 192.307692,50.741851 192.307692,103.846154 C192.307692,156.950457 149.258149,200 96.1538462,200 L96.1538462,168.460492 C96.2819628,168.461162 96.4101683,168.461538 96.5384616,168.461538 C132.012136,168.461538 160.769231,139.704444 160.769231,104.230769 C160.769231,68.7570949 132.012136,40 96.5384616,40 C96.4101683,40 96.2819628,40.0003761 96.1538462,40.0011274 L96.1538462,7.69230769 L96.1538462,7.69230769 Z" id="Combined-Shape" fill="#F28D48"></path>
                        <path d="M200,103.846154 C200,46.4935068 153.506493,0 96.1538462,0 L96.1538462,40.0011274 C96.2819627,40.0003761 96.4101682,40 96.5384615,40 C131.883843,40 160.561138,68.5494665 160.768103,103.846154 L200,103.846154 L200,103.846154 Z" id="Combined-Shape" fill="#EB5A5C"></path>
                        <path d="M163.493744,177.843282 C146.244927,160.637716 122.441672,150 96.1538462,150 L96.1538462,182.039902 C96.2808964,182.039157 96.4080348,182.038784 96.5352602,182.038784 C113.887135,182.038784 129.618475,188.977121 141.106255,200.230772 L163.493744,177.843282 L163.493744,177.843282 Z" id="Combined-Shape" fill="#40AFD8" transform="translate(129.823795, 175.115386) scale(1, -1) translate(-129.823795, -175.115386) "></path>
                        <text id="15%" font-family="PingFangSC-Regular, PingFang SC" font-size="24" font-weight="normal" line-spacing="42" fill="#35434C">
                            <tspan x="76" y="98">15%</tspan>
                        </text>
                        <text id="试用期员工" font-family="PingFangSC-Regular, PingFang SC" font-size="14" font-weight="normal" line-spacing="24" fill="#35434C">
                            <tspan x="65" y="130">试用期员工</tspan>
                        </text>
                    </g>
                </g>
            </g>
        </g>
    </g>
</svg>