<?xml version="1.0" encoding="UTF-8" standalone="no"?>
<svg width="14px" height="18px" viewBox="0 0 14 18" version="1.1" xmlns="http://www.w3.org/2000/svg" xmlns:xlink="http://www.w3.org/1999/xlink">
    <!-- Generator: Sketch 3.6.1 (26313) - http://www.bohemiancoding.com/sketch -->
    <title>gongzuo-l</title>
    <desc>Created with Sketch.</desc>
    <defs></defs>
    <g id="主菜单交互" stroke="none" stroke-width="1" fill="none" fill-rule="evenodd">
        <g transform="translate(-765.000000, -171.000000)" id="切图" fill="#FFFFFF">
            <g transform="translate(649.000000, 0.000000)">
                <g id="默认" transform="translate(114.000000, 71.000000)">
                    <g id="gongzuo-l" transform="translate(2.000000, 100.000000)">
                        <path d="M5,13 C5,12.4477153 5.43788135,12 6.00292933,12 L10.9970707,12 C11.5509732,12 12,12.4438648 12,13 C12,13.5522847 11.5621186,14 10.9970707,14 L6.00292933,14 C5.44902676,14 5,13.5561352 5,13 L5,13 Z M3,14 L3,14 C2.44771525,14 2,13.5522847 2,13 C2,12.4477153 2.44771525,12 3,12 C3.55228475,12 4,12.4477153 4,13 C4,13.5522847 3.55228475,14 3,14 L3,14 Z M5,9 C5,8.44771525 5.43788135,8 6.00292933,8 L10.9970707,8 C11.5509732,8 12,8.44386482 12,9 C12,9.55228475 11.5621186,10 10.9970707,10 L6.00292933,10 C5.44902676,10 5,9.55613518 5,9 L5,9 Z M3,10 L3,10 C2.44771525,10 2,9.55228475 2,9 C2,8.44771525 2.44771525,8 3,8 C3.55228475,8 4,8.44771525 4,9 C4,9.55228475 3.55228475,10 3,10 L3,10 Z M5,5 C5,4.44771525 5.43788135,4 6.00292933,4 L10.9970707,4 C11.5509732,4 12,4.44386482 12,5 C12,5.55228475 11.5621186,6 10.9970707,6 L6.00292933,6 C5.44902676,6 5,5.55613518 5,5 L5,5 Z M3,6 L3,6 C2.44771525,6 2,5.55228475 2,5 C2,4.44771525 2.44771525,4 3,4 C3.55228475,4 4,4.44771525 4,5 C4,5.55228475 3.55228475,6 3,6 L3,6 Z" id="Combined-Shape"></path>
                        <path d="M1,2.99406028 L1,2.99406028 L1,15.0059397 C1,16.1054862 1.8992496,17 3.0085302,17 L10.9914698,17 C12.0980496,17 13,16.1072288 13,15.0059397 L13,2.99406028 C13,1.89451376 12.1007504,1 10.9914698,1 L3.0085302,1 C1.90195036,1 1,1.8927712 1,2.99406028 L1,2.99406028 Z M0,2.99406028 L0,2.99406028 C0,1.33957705 1.35055094,0 3.0085302,0 L10.9914698,0 C12.6509513,0 14,1.34013829 14,2.99406028 L14,15.0059397 C14,16.6604229 12.6494491,18 10.9914698,18 L3.0085302,18 C1.3490487,18 0,16.6598617 0,15.0059397 L0,2.99406028 Z"></path>
                    </g>
                </g>
            </g>
        </g>
    </g>
</svg>