<?xml version="1.0" encoding="UTF-8" standalone="no"?>
<svg width="18px" height="14px" viewBox="0 0 18 14" version="1.1" xmlns="http://www.w3.org/2000/svg" xmlns:xlink="http://www.w3.org/1999/xlink">
    <!-- Generator: Sketch 3.6.1 (26313) - http://www.bohemiancoding.com/sketch -->
    <title>jixiao-l</title>
    <desc>Created with Sketch.</desc>
    <defs></defs>
    <g id="主菜单交互" stroke="none" stroke-width="1" fill="none" fill-rule="evenodd">
        <g transform="translate(-763.000000, -222.000000)" id="切图" fill="#FFFFFF">
            <g transform="translate(649.000000, 0.000000)">
                <g id="默认" transform="translate(114.000000, 71.000000)">
                    <g id="jixiao-l" transform="translate(0.000000, 151.000000)">
                        <path d="M8.8014463,9.17238016 L8.8014463,9.17238016 L8.8014463,9.17238016 L8.8014463,9.17238016 L8.8014463,9.17238016 L8.8014463,9.17238016 L8.8014463,9.17238016 L8.8014463,9.17238016 L8.8014463,9.17238016 L8.8014463,9.17238016 L8.8014463,9.17238016 L8.8014463,9.17238016 L8.8014463,9.17238016 L8.8014463,9.17238016 L7.53140659,7.90234045 C6.76635622,7.13729008 6.74737586,5.90910724 7.47497313,5.12404514 L7.09021309,4.74746244 C6.65702275,4.32347873 5.96582074,4.32337943 5.53956287,4.740578 L2.57319247,7.64390387 L1.62195994,6.70738175 C1.2819251,6.3726054 1,6.48032449 1,6.95559679 L1,12.1394434 C1,12.6089753 1.39312357,13 1.87806607,13 L7.16738648,12.9999999 C7.64647182,12.9999999 7.76904059,12.7301942 7.42806918,12.397372 L6.46594621,11.4582437 L8.8014463,9.17238016 Z M9.50091793,9.88704053 L9.50091793,9.88704053 L7.16541784,12.172904 L7.16444982,10.7426371 L8.12657278,11.6817654 C9.12047773,12.6519162 8.5282779,13.9999999 7.16738649,13.9999999 L1.87806608,14 C0.84630218,14 -3.43510277e-10,13.1667522 0,12.1394434 L1.73338321e-09,6.95559679 C2.19301671e-09,5.58112187 1.3595834,5.04574169 2.32353526,5.99478644 L3.27476779,6.93130856 L1.87372084,6.9292435 L4.84009124,4.02591764 C5.65710179,3.22627109 6.96981837,3.23036041 7.78968472,4.03280207 L8.17444476,4.40938477 L8.86990463,5.09006397 L8.20841333,5.80379912 C7.84411607,6.19686817 7.85570264,6.81242294 8.23851337,7.19523367 L9.50855308,8.46527338 L10.2232955,9.18001575 L9.50091793,9.88704053 Z M15.4268075,6.35609613 L16.3780401,7.29261825 C16.7180749,7.6273946 17,7.51967551 17,7.04440321 L17,1.86055663 C17,1.39102468 16.6068764,0.999999995 16.1219339,1 L10.8326135,1.00000006 C10.3535282,1.00000006 10.2309594,1.26980579 10.5719308,1.60262803 L11.5340538,2.54175635 L8.56547695,5.44724176 C8.14497488,5.85880686 8.14236828,6.54393513 8.57251088,6.96493587 L10.9097869,9.25253756 C11.3429772,9.67652127 12.0341793,9.67662057 12.4604371,9.259422 L15.4268075,6.35609613 L15.4268075,6.35609613 L15.4268075,6.35609613 L15.4268075,6.35609613 L15.4268075,6.35609613 L15.4268075,6.35609613 L15.4268075,6.35609613 L15.4268075,6.35609613 L15.4268075,6.35609613 L15.4268075,6.35609613 L15.4268075,6.35609613 L15.4268075,6.35609613 L15.4268075,6.35609613 Z M14.7252322,7.06869144 L14.7252322,7.06869144 L16.1262792,7.0707565 L13.1599088,9.97408236 C12.3428982,10.7737289 11.0301816,10.7696396 10.2103153,9.96719793 L7.87303925,7.67959624 C7.04483458,6.86899347 7.04216133,5.53891615 7.86600532,4.73258139 L10.8345822,1.82709598 L10.8355502,3.25736288 L9.87342722,2.31823456 C8.87952227,1.34808384 9.4717221,7.03892908e-08 10.8326135,5.59849127e-08 L16.1219339,0 C17.1536978,-1.09207008e-08 18,0.833247811 18,1.86055663 L18,7.04440321 C18,8.41887813 16.6404166,8.95425831 15.6764647,8.00521356 L14.7252322,7.06869144 Z" id="jixiao"></path>
                    </g>
                </g>
            </g>
        </g>
    </g>
</svg>