<?xml version="1.0" encoding="UTF-8" standalone="no"?>
<svg width="18px" height="18px" viewBox="0 0 18 18" version="1.1" xmlns="http://www.w3.org/2000/svg" xmlns:xlink="http://www.w3.org/1999/xlink">
    <!-- Generator: Sketch 3.6.1 (26313) - http://www.bohemiancoding.com/sketch -->
    <title>mubiao-l</title>
    <desc>Created with Sketch.</desc>
    <defs></defs>
    <g id="主菜单交互" stroke="none" stroke-width="1" fill="none" fill-rule="evenodd">
        <g transform="translate(-763.000000, -321.000000)" id="切图" fill="#FFFFFF">
            <g transform="translate(649.000000, 0.000000)">
                <g id="默认" transform="translate(114.000000, 71.000000)">
                    <g id="mubiao-l" transform="translate(0.000000, 250.000000)">
                        <path d="M9.88888889,15.1592099 C12.6139477,14.7694208 14.7694208,12.6139477 15.1592099,9.88888889 L16.1169798,9.88888889 C16.6044922,9.88888889 17,9.49091978 17,9 C17,8.50565762 16.6046584,8.11111111 16.1169798,8.11111111 L15.1592099,8.11111111 C14.7694208,5.3860523 12.6139477,3.23057922 9.88888889,2.8407901 L9.88888889,1.88302016 C9.88888889,1.39550781 9.49091978,1 9,1 C8.50565762,1 8.11111111,1.39534159 8.11111111,1.88302016 L8.11111111,2.8407901 C5.3860523,3.23057922 3.23057922,5.3860523 2.8407901,8.11111111 L1.88302016,8.11111111 C1.39550781,8.11111111 1,8.50908022 1,9 C1,9.49434238 1.39534159,9.88888889 1.88302016,9.88888889 L2.8407901,9.88888889 C3.23057922,12.6139477 5.3860523,14.7694208 8.11111111,15.1592099 L8.11111111,16.1169798 C8.11111111,16.6044922 8.50908022,17 9,17 C9.49434238,17 9.88888889,16.6046584 9.88888889,16.1169798 L9.88888889,15.1592099 L9.88888889,15.1592099 L9.88888889,15.1592099 L9.88888889,15.1592099 L9.88888889,15.1592099 L9.88888889,15.1592099 L9.88888889,15.1592099 Z M10.0304865,16.1491342 L10.0304865,16.1491342 L9.88888889,15.1592099 L10.8888889,15.1592099 L10.8888889,16.1169798 C10.8888889,17.1590092 10.0445603,18 9,18 C7.95830179,18 7.11111111,17.1582933 7.11111111,16.1169798 L7.11111111,15.1592099 L8.11111111,15.1592099 L7.96951353,16.1491342 C4.8046189,15.6964315 2.3035685,13.1953811 1.85086579,10.0304865 L2.8407901,9.88888889 L2.8407901,10.8888889 L1.88302016,10.8888889 C0.840990807,10.8888889 0,10.0445603 0,9 C0,7.95830179 0.841706683,7.11111111 1.88302016,7.11111111 L2.8407901,7.11111111 L2.8407901,8.11111111 L1.85086579,7.96951353 C2.3035685,4.8046189 4.8046189,2.3035685 7.96951353,1.85086579 L8.11111111,2.8407901 L7.11111111,2.8407901 L7.11111111,1.88302016 C7.11111111,0.840990807 7.9554397,0 9,0 C10.0416982,0 10.8888889,0.841706683 10.8888889,1.88302016 L10.8888889,2.8407901 L9.88888889,2.8407901 L10.0304865,1.85086579 C13.1953811,2.3035685 15.6964315,4.8046189 16.1491342,7.96951353 L15.1592099,8.11111111 L15.1592099,7.11111111 L16.1169798,7.11111111 C17.1590092,7.11111111 18,7.9554397 18,9 C18,10.0416982 17.1582933,10.8888889 16.1169798,10.8888889 L15.1592099,10.8888889 L15.1592099,9.88888889 L16.1491342,10.0304865 C15.6964315,13.1953811 13.1953811,15.6964315 10.0304865,16.1491342 L10.0304865,16.1491342 Z"></path>
                        <path d="M9,12.6666667 C6.97495592,12.6666667 5.33333333,11.0250441 5.33333333,9 C5.33333333,6.97495592 6.97495592,5.33333333 9,5.33333333 C11.0250441,5.33333333 12.6666667,6.97495592 12.6666667,9 C12.6666667,11.0250441 11.0250441,12.6666667 9,12.6666667 Z M9,11.6666667 C10.4727593,11.6666667 11.6666667,10.4727593 11.6666667,9 C11.6666667,7.52724067 10.4727593,6.33333333 9,6.33333333 C7.52724067,6.33333333 6.33333333,7.52724067 6.33333333,9 C6.33333333,10.4727593 7.52724067,11.6666667 9,11.6666667 Z" id="Combined-Shape"></path>
                    </g>
                </g>
            </g>
        </g>
    </g>
</svg>