<?xml version="1.0" encoding="UTF-8" standalone="no"?>
<svg width="25px" height="19.4px" viewBox="0 0 18 14" version="1.1" xmlns="http://www.w3.org/2000/svg" xmlns:xlink="http://www.w3.org/1999/xlink">
    <!-- Generator: Sketch 3.6.1 (26313) - http://www.bohemiancoding.com/sketch -->
    <title>zhaopin-l</title>
    <desc>Created with Sketch.</desc>
    <defs></defs>
    <g id="主菜单交互" stroke="none" stroke-width="1" fill="none" fill-rule="evenodd">
        <g transform="translate(-763.000000, -373.000000)" id="切图" fill="#FFFFFF">
            <g transform="translate(649.000000, 0.000000)">
                <g id="默认" transform="translate(114.000000, 71.000000)">
                    <g id="zhaopin-l" transform="translate(0.000000, 302.000000)">
                        <path d="M6.02454687,5 L6.02454687,5 C7.14448919,5 8.04909374,4.10273711 8.04909374,3 C8.04909374,1.89726289 7.14448919,1 6.02454687,1 C4.90460456,1 4,1.89726289 4,3 C4,4.10273711 4.90460456,5 6.02454687,5 L6.02454687,5 Z M6.02454687,6 L6.02454687,6 C4.35413576,6 3,4.65685425 3,3 C3,1.34314575 4.35413576,0 6.02454687,0 C7.69495798,0 9.04909374,1.34314575 9.04909374,3 C9.04909374,4.65685425 7.69495798,6 6.02454687,6 L6.02454687,6 Z" id="Path"></path>
                        <path d="M11.9509063,3 C11.9509063,2.44771525 12.4018814,2 12.9416842,2 L16.9601283,2 C17.5073199,2 17.9509063,2.44386482 17.9509063,3 C17.9509063,3.55228475 17.4999311,4 16.9601283,4 L12.9416842,4 C12.3944927,4 11.9509063,3.55613518 11.9509063,3 Z M13,7 C13,6.44771525 13.4437166,6 13.9998075,6 L17.0001925,6 C17.5523709,6 18,6.44386482 18,7 C18,7.55228475 17.5562834,8 17.0001925,8 L13.9998075,8 C13.4476291,8 13,7.55613518 13,7 Z M14,11 C14,10.4477153 14.4433532,10 15.0093689,10 L16.9906311,10 C17.5480902,10 18,10.4438648 18,11 C18,11.5522847 17.5566468,12 16.9906311,12 L15.0093689,12 C14.4519098,12 14,11.5561352 14,11 Z" id="Combined-Shape"></path>
                        <path d="M6,13 L6,13 C9.8659582,13 11,12.770646 11,12.2432434 C11,9.33878437 8.75233716,7 6,7 C3.24766284,7 1,9.33878437 1,12.2432434 C1,12.770646 2.1340418,13 6,13 L6,13 Z M6,14 L6,14 C2.6862915,14 0,14 0,12.2432434 C0,8.79519528 2.6862915,6 6,6 C9.3137085,6 12,8.79519528 12,12.2432434 C12,14 9.3137085,14 6,14 L6,14 Z" id="Oval-10"></path>
                    </g>
                </g>
            </g>
        </g>
    </g>
</svg>