<?xml version="1.0" encoding="UTF-8" standalone="no"?>
<svg width="16px" height="16px" viewBox="0 0 16 16" version="1.1" xmlns="http://www.w3.org/2000/svg" xmlns:xlink="http://www.w3.org/1999/xlink">
    <!-- Generator: Sketch 3.6.1 (26313) - http://www.bohemiancoding.com/sketch -->
    <title>rencai-l</title>
    <desc>Created with Sketch.</desc>
    <defs></defs>
    <g id="主菜单交互" stroke="none" stroke-width="1" fill="none" fill-rule="evenodd">
        <g transform="translate(-764.000000, -272.000000)" id="切图">
            <g transform="translate(649.000000, 0.000000)">
                <g id="默认" transform="translate(114.000000, 71.000000)">
                    <g id="rencai-l" transform="translate(2.000000, 202.000000)">
                        <path d="M6,7.19817942 L1.6335427,5.25410737 C1.179057,5.0517573 0.973507439,4.52187692 1.1775909,4.06349796 C1.38026138,3.60829262 1.90669386,3.40050893 2.36747743,3.60566299 L6.97049058,5.65505649 L11.571899,3.60637745 C12.0326826,3.40122339 12.5591151,3.60900708 12.7617856,4.06421242 C12.965869,4.52259138 12.7603195,5.05247176 12.3058338,5.25482183 L8,7.17190254 L8,11.009222 C8,11.5564136 7.55613518,12 7,12 C6.44771525,12 6,11.5490248 6,11.009222 L6,7.19817942 L6,7.19817942 Z" id="Path" fill="#FFFFFF"></path>
                        <path d="M1.13388889,2.76031168 C2.07263312,2.23119826 5.07120133,0.698602104 5.75995962,0.371770586 C6.76172936,-0.103592011 7.24604952,-0.144165347 8.24181287,0.372689139 C8.94297546,0.736630059 12.0689216,2.34868463 12.9703088,2.82327849 C13.871696,3.29787234 14,3.23379632 14,4.44894307 C14,5.66408983 14,8.6309249 14,9.35163543 C14,10.7782513 14,10.5776676 12.8627977,11.2063958 C11.9245799,11.725111 8.85227002,13.2974089 8.14367441,13.6468376 C7.11623347,14.153498 6.72123778,14.0969111 5.75221979,13.5928871 C5.08153039,13.2440354 2.12405412,11.7370339 1.10921105,11.1863871 C0.094367981,10.6357404 6.94752897e-14,10.673847 6.94752897e-14,9.36616255 C6.94752897e-14,8.05847811 -8.68441121e-14,6.15077981 6.94752897e-14,4.54308844 C2.11583837e-13,3.10021797 0.195144653,3.2894251 1.13388889,2.76031168 L1.13388889,2.76031168 L1.13388889,2.76031168 L1.13388889,2.76031168 L1.13388889,2.76031168 L1.13388889,2.76031168 L1.13388889,2.76031168 L1.13388889,2.76031168 L1.13388889,2.76031168 L1.13388889,2.76031168 L1.13388889,2.76031168 L1.13388889,2.76031168 L1.13388889,2.76031168 L1.13388889,2.76031168 L1.13388889,2.76031168 L1.13388889,2.76031168 L1.13388889,2.76031168 L1.13388889,2.76031168 Z" stroke="#FFFFFF"></path>
                    </g>
                </g>
            </g>
        </g>
    </g>
</svg>