<?xml version="1.0" encoding="UTF-8" standalone="no"?>
<svg width="16px" height="16px" viewBox="0 0 16 16" version="1.1" xmlns="http://www.w3.org/2000/svg" xmlns:xlink="http://www.w3.org/1999/xlink">
    <!-- Generator: Sketch 3.6.1 (26313) - http://www.bohemiancoding.com/sketch -->
    <title>shouye-l</title>
    <desc>Created with Sketch.</desc>
    <defs></defs>
    <g id="主菜单交互" stroke="none" stroke-width="1" fill="none" fill-rule="evenodd">
        <g transform="translate(-764.000000, -71.000000)" id="切图" fill="#FFFFFF">
            <g transform="translate(649.000000, 0.000000)">
                <g id="默认" transform="translate(114.000000, 71.000000)">
                    <g id="shouye-l" transform="translate(1.000000, 0.000000)">
                        <path d="M9,15 L11.000385,15 C12.1125667,15 13,14.1047419 13,13.000385 L13,10.7357315 L14.485704,9.2487267 C15.1714925,8.56233774 15.1713715,7.44979898 14.485704,6.76353119 L9.24151073,1.51474628 C8.55572223,0.828357325 7.44415671,0.828478491 6.75848927,1.51474628 L1.51429598,6.76353119 C0.828507478,7.44992015 0.828628537,8.56245891 1.51429598,9.2487267 L3,10.7357315 L3,13.000385 C3,14.1125667 3.89525812,15 4.99961498,15 L7,15 L7,10.990778 C7,10.4435864 7.44386482,10 8,10 C8.55228475,10 9,10.4509752 9,10.990778 L9,15 L9,15 L9,15 Z M9,16 L9,16 L8,16 L8,15 L8,10.990778 C8,11.001634 7.99835927,11 8,11 C7.996007,11 8,10.9960333 8,10.990778 L8,15 L8,16 L7,16 L4.99961498,16 C3.34086857,16 2,14.6627558 2,13.000385 L2,10.7357315 L2.29258386,11.4425288 L0.806879845,9.95552399 C-0.268930586,8.87877162 -0.268989311,7.13354505 0.806879845,6.0567339 L6.05107313,0.80794899 C7.12736667,-0.269286917 8.87257455,-0.269345744 9.94892687,0.80794899 L15.1931202,6.0567339 C16.2689306,7.13348627 16.2689893,8.87871284 15.1931202,9.95552399 L13.7074161,11.4425288 L14,10.7357315 L14,13.000385 C14,14.6591314 12.6627558,16 11.000385,16 L9,16 Z" id="shouye"></path>
                    </g>
                </g>
            </g>
        </g>
    </g>
</svg>