<?xml version="1.0" encoding="UTF-8" standalone="no"?>
<svg width="14px" height="17px" viewBox="0 0 14 17" version="1.1" xmlns="http://www.w3.org/2000/svg" xmlns:xlink="http://www.w3.org/1999/xlink">
    <!-- Generator: Sketch 3.6.1 (26313) - http://www.bohemiancoding.com/sketch -->
    <title>tongshi</title>
    <desc>Created with Sketch.</desc>
    <defs></defs>
    <g id="主菜单交互" stroke="none" stroke-width="1" fill="none" fill-rule="evenodd">
        <g transform="translate(-765.000000, -471.000000)" id="切图" fill="#FFFFFF">
            <g transform="translate(649.000000, 0.000000)">
                <g id="默认" transform="translate(114.000000, 71.000000)">
                    <g id="tongshi" transform="translate(2.000000, 400.000000)">
                        <path d="M6.98067249,15.9854185 L6.98067249,15.9854185 C13.8840011,15.9854185 12.234323,16.0116494 12.7393044,15.8233058 C12.9270026,15.7532997 12.961345,15.6143387 12.961345,13.9806725 C12.961345,10.6776383 10.2837067,8 6.98067249,8 C3.83057297,8 1,10.9517927 1,13.9806725 C1,15.6209511 1.03429394,15.7599611 1.22007927,15.8288113 C1.72222935,16.0149029 -0.300375213,15.9854185 6.98067249,15.9854185 L6.98067249,15.9854185 Z M6.98067249,16.9854185 L6.98067249,16.9854185 C0,16.9854185 2.96469578e-16,17.4031992 0,13.9806725 C2.92586956e-16,10.5581458 3.12535353,7 6.98067249,7 C10.8359914,7 13.961345,10.1253535 13.961345,13.9806725 C13.961345,17.3865734 13.961345,16.9854185 6.98067249,16.9854185 L6.98067249,16.9854185 Z" id="Oval-12"></path>
                        <path d="M6.98067249,6 L6.98067249,6 C8.36138436,6 9.48067249,4.88071187 9.48067249,3.5 C9.48067249,2.11928813 8.36138436,1 6.98067249,1 C5.59996061,1 4.48067249,2.11928813 4.48067249,3.5 C4.48067249,4.88071187 5.59996061,6 6.98067249,6 L6.98067249,6 Z M6.98067249,7 L6.98067249,7 C5.04767586,7 3.48067249,5.43299662 3.48067249,3.5 C3.48067249,1.56700338 5.04767586,0 6.98067249,0 C8.91366911,0 10.4806725,1.56700338 10.4806725,3.5 C10.4806725,5.43299662 8.91366911,7 6.98067249,7 L6.98067249,7 Z" id="Path"></path>
                    </g>
                </g>
            </g>
        </g>
    </g>
</svg>