<?xml version="1.0" encoding="UTF-8" standalone="no"?>
<svg width="18px" height="18px" viewBox="0 0 18 18" version="1.1" xmlns="http://www.w3.org/2000/svg" xmlns:xlink="http://www.w3.org/1999/xlink">
    <!-- Generator: Sketch 3.6.1 (26313) - http://www.bohemiancoding.com/sketch -->
    <title>yibiao-l</title>
    <desc>Created with Sketch.</desc>
    <defs></defs>
    <g id="主菜单交互" stroke="none" stroke-width="1" fill="none" fill-rule="evenodd">
        <g transform="translate(-763.000000, -120.000000)" id="切图" fill="#FFFFFF">
            <g transform="translate(649.000000, 0.000000)">
                <g id="默认" transform="translate(114.000000, 71.000000)">
                    <g id="yibiao-l" transform="translate(0.000000, 49.000000)">
                        <path d="M9,2.77777778 L9,2.77777778 C12.4364384,2.77777778 15.2222222,5.56356156 15.2222222,9 C15.2222222,9.49091978 14.8242531,9.88888889 14.3333333,9.88888889 C13.8424136,9.88888889 13.4444444,9.49091978 13.4444444,9 C13.4444444,6.54540111 11.4545989,4.55555556 9,4.55555556 C6.54540111,4.55555556 4.55555556,6.54540111 4.55555556,9 C4.55555556,9.49091978 4.15758644,9.88888889 3.66666667,9.88888889 C3.17574689,9.88888889 2.77777778,9.49091978 2.77777778,9 C2.77777778,5.56356156 5.56356156,2.77777778 9,2.77777778 L9,2.77777778 Z" id="Path"></path>
                        <path d="M10.5609756,11.5555556 L10.5609756,11.5555556 L11,12.5555556 L10.9504408,12.5555556 C10.9519378,12.5621529 10.9534022,12.5687627 10.9548338,12.5753846 L10.084356,12.9575456 L8.45393626,9.24381184 L8.82351656,8.40199006 L9.17648344,8.40199006 L9.54606374,9.24381184 L7.91564403,12.9575456 L7.04516617,12.5753846 C7.04659778,12.5687627 7.04806219,12.5621529 7.04955921,12.5555556 L7,12.5555556 L7.43902439,11.5555556 L8.30189266,11.5555556 L8.02476802,12.7768422 C8.00838247,12.8490532 8,12.9236207 8,13 C8,13.5522847 8.44771525,14 9,14 C9.55228475,14 10,13.5522847 10,13 C10,12.9236207 9.99161753,12.8490532 9.97523198,12.7768422 L9.69810734,11.5555556 L10.5609756,11.5555556 Z M7.04955921,13.4444444 L7.04955921,12.5555556 L7.00448981,12.5453288 L9,8 L10.9955102,12.5453288 L10.9504408,12.5555556 L10.9504408,13.4444444 C10.7483389,14.3351061 9.95181662,15 9,15 C8.04818338,15 7.25166106,14.3351061 7.04955921,13.4444444 L7.04955921,13.4444444 Z" id="Path"></path>
                        <path d="M9,17 C13.418278,17 17,13.418278 17,9 C17,4.581722 13.418278,1 9,1 C4.581722,1 1,4.581722 1,9 C1,13.418278 4.581722,17 9,17 L9,17 L9,17 L9,17 L9,17 L9,17 L9,17 L9,17 Z M9,18 L9,18 C4.02943725,18 0,13.9705627 0,9 C0,4.02943725 4.02943725,0 9,0 C13.9705627,0 18,4.02943725 18,9 C18,13.9705627 13.9705627,18 9,18 L9,18 Z" id="Path"></path>
                    </g>
                </g>
            </g>
        </g>
    </g>
</svg>