<?xml version="1.0" encoding="UTF-8" standalone="no"?>
<svg width="16px" height="16px" viewBox="0 0 16 16" version="1.1" xmlns="http://www.w3.org/2000/svg" xmlns:xlink="http://www.w3.org/1999/xlink">
    <!-- Generator: Sketch 3.6.1 (26313) - http://www.bohemiancoding.com/sketch -->
    <title>yingyong</title>
    <desc>Created with Sketch.</desc>
    <defs></defs>
    <g id="主菜单交互" stroke="none" stroke-width="1" fill="none" fill-rule="evenodd">
        <g transform="translate(-764.000000, -522.000000)" id="切图" fill="#FFFFFF">
            <g transform="translate(649.000000, 0.000000)">
                <g id="默认" transform="translate(114.000000, 71.000000)">
                    <g id="yingyong" transform="translate(1.000000, 451.000000)">
                        <path d="M10,2.00591905 L10,2.00591905 L10,4.99408095 C10,5.55628757 10.4454805,6 11.0059191,6 L13.9940809,6 C14.5562876,6 15,5.55451949 15,4.99408095 L15,2.00591905 C15,1.44371243 14.5545195,1 13.9940809,1 L11.0059191,1 C10.4437124,1 10,1.44548051 10,2.00591905 L10,2.00591905 Z M9,2.00591905 C9,0.898080551 9.88655484,0 11.0059191,0 L13.9940809,0 C15.1019194,0 16,0.886554837 16,2.00591905 L16,4.99408095 C16,6.10191945 15.1134452,7 13.9940809,7 L11.0059191,7 C9.89808055,7 9,6.11344516 9,4.99408095 L9,2.00591905 L9,2.00591905 Z" id="Rectangle-29-Copy"></path>
                        <path d="M10,11.0059191 L10,11.0059191 L10,13.9940809 C10,14.5562876 10.4454805,15 11.0059191,15 L13.9940809,15 C14.5562876,15 15,14.5545195 15,13.9940809 L15,11.0059191 C15,10.4437124 14.5545195,10 13.9940809,10 L11.0059191,10 C10.4437124,10 10,10.4454805 10,11.0059191 L10,11.0059191 Z M9,11.0059191 C9,9.89808055 9.88655484,9 11.0059191,9 L13.9940809,9 C15.1019194,9 16,9.88655484 16,11.0059191 L16,13.9940809 C16,15.1019194 15.1134452,16 13.9940809,16 L11.0059191,16 C9.89808055,16 9,15.1134452 9,13.9940809 L9,11.0059191 L9,11.0059191 Z" id="Rectangle-29-Copy"></path>
                        <path d="M1,11.0059191 L1,11.0059191 L1,13.9940809 C1,14.5562876 1.44548051,15 2.00591905,15 L4.99408095,15 C5.55628757,15 6,14.5545195 6,13.9940809 L6,11.0059191 C6,10.4437124 5.55451949,10 4.99408095,10 L2.00591905,10 C1.44371243,10 1,10.4454805 1,11.0059191 L1,11.0059191 Z M0,11.0059191 C0,9.89808055 0.886554837,9 2.00591905,9 L4.99408095,9 C6.10191945,9 7,9.88655484 7,11.0059191 L7,13.9940809 C7,15.1019194 6.11344516,16 4.99408095,16 L2.00591905,16 C0.898080551,16 0,15.1134452 0,13.9940809 L0,11.0059191 L0,11.0059191 Z" id="Rectangle-29"></path>
                        <path d="M1,2.00591905 L1,2.00591905 L1,4.99408095 C1,5.55628757 1.44548051,6 2.00591905,6 L4.99408095,6 C5.55628757,6 6,5.55451949 6,4.99408095 L6,2.00591905 C6,1.44371243 5.55451949,1 4.99408095,1 L2.00591905,1 C1.44371243,1 1,1.44548051 1,2.00591905 L1,2.00591905 Z M0,2.00591905 C0,0.898080551 0.886554837,0 2.00591905,0 L4.99408095,0 C6.10191945,0 7,0.886554837 7,2.00591905 L7,4.99408095 C7,6.10191945 6.11344516,7 4.99408095,7 L2.00591905,7 C0.898080551,7 0,6.11344516 0,4.99408095 L0,2.00591905 L0,2.00591905 Z" id="Path"></path>
                    </g>
                </g>
            </g>
        </g>
    </g>
</svg>