<?xml version="1.0" encoding="UTF-8" standalone="no"?>
<svg width="17px" height="16px" viewBox="0 0 17 16" version="1.1" xmlns="http://www.w3.org/2000/svg" xmlns:xlink="http://www.w3.org/1999/xlink">
    <!-- Generator: Sketch 3.6.1 (26313) - http://www.bohemiancoding.com/sketch -->
    <title>zhiye-l</title>
    <desc>Created with Sketch.</desc>
    <defs></defs>
    <g id="主菜单交互" stroke="none" stroke-width="1" fill="none" fill-rule="evenodd">
        <g transform="translate(-763.000000, -422.000000)" id="切图" fill="#FFFFFF">
            <g transform="translate(649.000000, 0.000000)">
                <g id="默认" transform="translate(114.000000, 71.000000)">
                    <g id="zhiye-l" transform="translate(0.000000, 351.000000)">
                        <path d="M5.0086607,11.9999219 L5.0086607,11.9999219 L5,12 L2.00087166,12 C1.99841519,12 2,11.9984131 2,11.9998075 L2,15.0001925 C2,15.0018016 1.99819163,15 2.00087166,15 L15.9991283,15 C16.0015848,15 16,15.0015869 16,15.0001925 L16,11.9998075 C16,11.9997926 16,11.9997926 16,11.9970837 C16,11.9970773 16,11.9970773 16,11.9970707 L16,7.00292933 C16,7.00287619 16,7.00287619 16,6.99709816 C16,6.9970847 16,6.9970847 16,6.99707067 L16,2.00292933 C16,1.99564506 16.0043866,2 15.9975267,2 L14.5014849,2 L10.9970301,2 C11.0026181,2 11,2.00261339 11,1.99980749 L11,4.00009625 L11,5.00922203 C11,6.10769863 10.1136989,6.99031193 9,7 L6.99703014,7 C7.00261813,7 7,7.00261339 7,6.99980749 L7,9.00009625 L7,10.009222 C7,11.1077231 6.11365861,11.9903515 5.0086607,11.9999219 L5.0086607,11.9999219 Z M5,10.9999594 C5.56153155,10.995096 6,10.5533909 6,10.009222 L6,9.00009625 L6,6.99980749 C6,6.44762906 6.45303631,6 6.99703014,6 L9,6 C9.56153155,5.99509601 10,5.55339085 10,5.00922203 L10,4.00009625 L10,1.99980749 C10,1.44762906 10.4530363,1 10.9970301,1 L14.5014849,1 L15.9975267,1 C16.5511774,1 17,1.43788135 17,2.00292933 L17,6.99707067 C17,6.99804775 16.9999986,6.99902451 16.9999957,7.00000094 C16.9999987,7.00097533 17,7.00195214 17,7.00292933 L17,11.9970707 C17,11.9975269 16.9999997,11.9979832 16.9999991,11.9984393 C16.9999997,11.998895 17,11.9993512 17,11.9998075 L17,15.0001925 C17,15.5523709 16.5553691,16 15.9991283,16 L2.00087166,16 C1.4481055,16 1,15.5562834 1,15.0001925 L1,11.9998075 C1,11.4476291 1.44463086,11 2.00087166,11 L5,11 L5,10.9999594 L5,10.9999594 Z" id="Combined-Shape"></path>
                        <path d="M4,3.99999999 L4,3.99999999 L4,3 L4.99999999,2.99999999 C5.65165839,2.99999999 5.65165839,2.99999999 6.23122493,2.99999998 C6.35058139,2.99999997 6.41356652,2.99138568 6.41177252,2.99204979 C6.28226972,3.03998962 6.13659798,3.1646147 6.05379823,3.36822002 C5.94174815,3.64375215 5.97318196,3.73505966 5.98927484,3.7580037 C5.94752023,3.69847306 5.88913882,3.62655698 5.81455059,3.54263739 C5.74375541,3.46298536 5.49830921,3.20340705 5.49509135,3.19990727 L3.45749949,0.983802879 C3.47740714,1.00545463 3.55200118,1.00534483 3.57180788,0.983802879 L1.53421602,3.19990727 C1.49218767,3.2456177 1.25295337,3.49277675 1.18748546,3.56420727 C1.11190678,3.64666942 1.05295361,3.71660815 1.01006299,3.77489354 C1.02895474,3.74922095 1.06368114,3.65513149 0.944510872,3.36476128 C0.858818513,3.15596333 0.711176483,3.03333881 0.583966505,2.98792813 C0.590399986,2.99022472 0.664783609,2.99999997 0.798082443,2.99999998 C1.36940427,2.99999999 1.36940427,2.99999999 1.99999999,2.99999999 L3,2.99999998 L3,3.99999999 L3,6.00019251 C3,6.00223164 2.99776422,6 2.99895656,6 L4.00104344,6 C4.00256656,6 4,6.00257692 4,6.00019251 L4,3.99999999 Z M5,3.99999999 L5,6.00019251 C5,6.55237094 4.55733967,7 4.00104344,7 L2.99895656,7 C2.44724809,7 2,6.55628335 2,6.00019251 L2,3.99999999 C1.57287357,3.99999999 1.16593494,3.99999998 0.798082423,3.99999998 C-0.791410229,3.99999994 0.420435495,2.93380342 0.798082423,2.52307101 L2.83567429,0.306966613 C3.21066425,-0.100876061 3.81598615,-0.103765797 4.19363308,0.306966613 L6.23122495,2.52307101 C6.60621491,2.93091368 7.75560198,3.99999994 6.23122495,3.99999998 C5.8605172,3.99999998 5.44279961,3.99999999 5,3.99999999 L5,3.99999999 L5,3.99999999 Z" id="Combined-Shape"></path>
                    </g>
                </g>
            </g>
        </g>
    </g>
</svg>