<?xml version="1.0" encoding="UTF-8" standalone="no"?>
<svg width="16px" height="18px" viewBox="0 0 16 18" version="1.1" xmlns="http://www.w3.org/2000/svg" xmlns:xlink="http://www.w3.org/1999/xlink">
    <!-- Generator: Sketch 3.6 (26304) - http://www.bohemiancoding.com/sketch -->
    <title>daiban</title>
    <desc>Created with Sketch.</desc>
    <defs></defs>
    <g id="Page-1" stroke="none" stroke-width="1" fill="none" fill-rule="evenodd">
        <g id="icon" transform="translate(-412.000000, -731.000000)">
            <g id="Group-4" transform="translate(102.000000, 560.000000)">
                <g id="Group-3">
                    <g id="daiban" transform="translate(310.000000, 171.000000)">
                        <path d="M14,9 L14,3.99406028 C14,3.44581752 13.5549376,3 13.0081158,3 L12,3 L11,3 L11,2 L11,1.99791312 C11,1.44889595 10.5518045,1 10.0026083,1 L4.9973917,1 C4.44752665,1 4,1.44739669 4,1.99791312 L4,2 L4,3 L3,3 L1.99188419,3 C1.44524961,3 1,3.44548879 1,3.99406028 L1,16.0059397 C1,16.5541825 1.44506236,17 1.99188419,17 L7,17 L7,18 L6,18 C6,16.9039234 6.59385058,15.9105956 7.53115148,15.383427 L8.0213681,16.2550276 L7.03546195,16.4223269 C7.01190271,16.2834907 7,16.1423201 7,16 C7,14.6197985 8.11781103,13.5015039 9.49891215,13.5000015 L9.5,14.5000009 L8.5,14.5000008 L8.5,13.4999991 L9.5,13.4999991 L9.49891855,14.4999985 C8.11726417,14.4985043 7,13.3843049 7,12 C7.0006637,11.9290729 7.0006637,11.9290729 7.00395871,11.8585918 L8.00238894,11.9146014 L7.67104194,12.8581104 C6.67680892,12.5089498 6,11.5718184 6,10.5 C6,9.1188202 7.12463568,8 8.50639765,8 L14.4936024,8 C14.6649876,8 14.8344997,8.0172168 15,8.05101019 L15,9.08623978 C14.8417398,9.0303611 14.6712627,9 14.4936024,9 L14,9 L14,9 Z M13.0081158,2 C14.1082031,2 15,2.89451376 15,3.99406028 L15,9.08623978 C14.8417398,9.0303611 14.6712627,9 14.4936024,9 L8.50639765,9 C7.67646277,9 7,9.67157288 7,10.5 C7,11.1569596 7.41828817,11.7094735 8.00238894,11.9146014 C8.00080338,11.9428657 8,11.971339 8,12 C8,12.8336409 8.67141769,13.499103 9.5,13.4999991 L9.5,14.5000008 C8.6702868,14.5009035 8,15.1721301 8,16 C8,16.0870304 8.00731774,16.1722279 8.0213681,16.2550276 C7.41228058,16.5975983 7,17.2506755 7,18 L1.99188419,18 C0.891796927,18 0,17.1054862 0,16.0059397 L0,3.99406028 C0,2.8927712 0.893397331,2 1.99188419,2 L3,2 C3,2 3.34308717,0 4.9973917,0 L10.0026083,0 C11.6570738,0 12,2 12,2 L13.0081158,2 Z" id="Rectangle-208" fill="#414D57"></path>
                        <rect id="Rectangle-221" stroke="#414D57" x="3" y="5" width="9" height="1" rx="2"></rect>
                        <rect id="Rectangle-222" fill="#414D57" x="5" y="2" width="5" height="1" rx="2"></rect>
                        <path d="M13.6656946,12.9717694 L13.6656946,12.9717694 C13.8147285,12.918905 13.9329862,12.7954149 13.9787755,12.6447563 L14.1341598,12.1335021 L14.645539,11.97853 C14.8543152,11.915261 15,11.7218576 15,11.5 C15,11.2209246 14.7782388,11 14.4983244,11 L10.5016756,11 C10.2237326,11 10,11.2235995 10,11.5 C10,11.724342 10.1440041,11.9152948 10.3528278,11.9783862 L10.8667396,12.133653 L11.0212825,12.6477831 C11.0665117,12.7982508 11.18267,12.91949 11.3313929,12.9717275 L12,13.2065694 L12,13.9152203 L12,14.0857658 L12,14.7920995 L11.3343054,15.0282306 C11.1852715,15.081095 11.0670138,15.2045851 11.0212245,15.3552437 L10.8658402,15.8664979 L10.354461,16.02147 C10.1456848,16.084739 10,16.2781424 10,16.5 C10,16.7790754 10.2217612,17 10.5016756,17 L14.4983244,17 C14.7762674,17 15,16.7764005 15,16.5 C15,16.275658 14.8559959,16.0847052 14.6471722,16.0216138 L14.1332604,15.866347 L13.9787175,15.3522169 C13.9334883,15.2017492 13.81733,15.08051 13.6686071,15.0282725 L13,14.7934306 L13,14.0847797 L13,13.9142342 L13,13.2079005 L13.6656946,12.9717694 Z M14.9363879,15.0643499 C15.5520484,15.2503578 16,15.8190767 16,16.5 C16,17.3284271 15.3288106,18 14.4983244,18 L10.5016756,18 C9.67232308,18 9,17.3342028 9,16.5 C9,15.8233364 9.44779796,15.2513214 10.0644387,15.0644501 C10.2000122,14.6099854 10.5499878,14.2399902 11,14.0857658 L11,13.9199829 C10.5499878,13.7600098 10.2000122,13.3900146 10.0636121,12.9356501 C9.44795162,12.7496422 9,12.1809233 9,11.5 C9,10.6715729 9.67118943,10 10.5016756,10 L14.4983244,10 C15.3276769,10 16,10.6657972 16,11.5 C16,12.1766636 15.552202,12.7486786 14.9355613,12.9355499 C14.7999878,13.3900146 14.4500122,13.7600098 14,13.9199829 L14,14.0800171 C14.4500122,14.2399902 14.7999878,14.6099854 14.9363879,15.0643499 Z" id="Rectangle-214" fill="#414D57"></path>
                    </g>
                </g>
            </g>
        </g>
    </g>
</svg>