<?xml version="1.0" encoding="UTF-8" standalone="no"?>
<svg width="18px" height="16px" viewBox="0 0 18 16" version="1.1" xmlns="http://www.w3.org/2000/svg" xmlns:xlink="http://www.w3.org/1999/xlink">
    <!-- Generator: Sketch 3.6 (26304) - http://www.bohemiancoding.com/sketch -->
    <title>huanfu</title>
    <desc>Created with Sketch.</desc>
    <defs></defs>
    <g id="Page-1" stroke="none" stroke-width="1" fill="none" fill-rule="evenodd">
        <g id="icon" transform="translate(-456.000000, -733.000000)" fill="#36434D">
            <g id="Group-4" transform="translate(102.000000, 560.000000)">
                <g id="Group-3">
                    <g id="huanfu" transform="translate(354.000000, 173.000000)">
                        <path d="M5.10033702,1.00557211 C4.72795437,0.963316183 4.355503,1.16113673 4.14918766,1.54230861 L1.14880265,7.08558252 C0.844011691,7.64869017 1.02555015,8.36373059 1.53021275,8.67452215 L2.38778315,9.20264855 C2.71562395,9.40454613 3.10373952,9.38515742 3.40967956,9.16140916 L5,7.99833342 L5,9.96857815 L5,14.0059445 C5,14.5533199 5.44765897,15.0000048 5.99961498,15.0000048 L12.000385,15.0000048 C12.5575963,15.0000048 13,14.5576343 13,14.0059445 L13,9.9688577 L13,7.99930684 L14.5900909,9.16152089 C14.8960827,9.38517351 15.2842214,9.40451372 15.6120781,9.20262589 L16.4697315,8.6744995 C16.9744556,8.36370009 17.1560016,7.6486995 16.8511953,7.08561815 L13.8505199,1.54234424 C13.6561766,1.1833256 13.3142898,0.986278436 12.9618124,1.00073917 L12.9208209,0.00157967127 L13.8785317,0.289312414 C13.3637119,2.00287631 11.3444931,3.1333381 9.06538087,3.1333381 C6.79369151,3.1333381 4.77976768,2.01020475 4.25700967,0.30506041 L5.21308791,0.0119488262 L5.10033702,1.00557211 Z M4,9.96857815 C4,9.96857815 4.39801025,9.62310791 4.6000061,9.28271484 C4.04998779,10.2999878 2.82998657,10.6500244 1.86340433,10.0541336 L1.00583393,9.52600724 C0.0469138986,8.93546565 -0.286727735,7.63696135 0.269363112,6.60957191 L3.26974813,1.066298 C3.67730015,0.31333713 4.44962003,-0.0746852986 5.21308791,0.0119488262 C5.58442593,1.2231879 7.16807664,2.1333381 9.06538087,2.1333381 C10.9680954,2.1333381 12.5553651,1.21798977 12.9208209,0.00157967127 C13.6393323,-0.0278979662 14.3462624,0.357513897 14.7299402,1.066298 L17.7306156,6.60957191 C18.2867603,7.63696135 17.9530863,8.93546565 16.9940735,9.52600724 L16.1364201,10.0541336 C15.1700134,10.6500244 13.9500122,10.2999878 13.3999939,9.2800293 L14,9.9688577 L14,14.0059445 C14,15.1072336 13.1125667,16.0000048 12.000385,16.0000048 L5.99961498,16.0000048 C4.89525812,16.0000048 4,15.105491 4,14.0059445 L4,9.96857815 Z" id="换肤"></path>
                    </g>
                </g>
            </g>
        </g>
    </g>
</svg>