<?xml version="1.0" encoding="UTF-8" standalone="no"?>
<svg width="18px" height="18px" viewBox="0 0 18 18" version="1.1" xmlns="http://www.w3.org/2000/svg" xmlns:xlink="http://www.w3.org/1999/xlink">
    <!-- Generator: Sketch 3.6 (26304) - http://www.bohemiancoding.com/sketch -->
    <title>shezhi</title>
    <desc>Created with Sketch.</desc>
    <defs></defs>
    <g id="Page-1" stroke="none" stroke-width="1" fill="none" fill-rule="evenodd">
        <g id="icon" transform="translate(-504.000000, -736.000000)" fill="#36434D">
            <g id="Group-4" transform="translate(102.000000, 560.000000)">
                <g id="Group-3">
                    <g id="shezhi" transform="translate(402.000000, 176.000000)">
                        <path d="M9,12 L9,12 C10.6568542,12 12,10.6568542 12,9 C12,7.34314575 10.6568542,6 9,6 C7.34314575,6 6,7.34314575 6,9 C6,10.6568542 7.34314575,12 9,12 L9,12 Z M9,13 L9,13 C6.790861,13 5,11.209139 5,9 C5,6.790861 6.790861,5 9,5 C11.209139,5 13,6.790861 13,9 C13,11.209139 11.209139,13 9,13 L9,13 Z" id="18"></path>
                        <path d="M11.6542123,3.61726015 L11.6542123,3.61726015 C11.4194229,3.50122822 11.1771472,3.40071107 10.9287514,3.3164479 L10.25,3.08619542 L10.25,2.36945299 L10.25,1.99508929 C10.25,1.44571315 9.80310186,1 9.25002835,1 L8.74997165,1 C8.19348273,1 7.75,1.44337441 7.75,1.99508929 L7.75,2.36945299 L7.75,3.08619542 L7.07124857,3.3164479 C6.82285277,3.40071107 6.58057713,3.50122822 6.3457877,3.61726015 L5.70279257,3.93502561 L5.19563498,3.42786803 L4.93066361,3.16289666 C4.54219602,2.77442907 3.91102452,2.77526698 3.51994249,3.16634901 L3.16634901,3.51994249 C2.77285192,3.91343958 2.77277533,4.54054228 3.16289666,4.93066361 L3.42786803,5.19563498 L3.93502561,5.70279257 L3.61726015,6.3457877 C3.50122822,6.58057713 3.40071107,6.82285277 3.3164479,7.07124857 L3.08619542,7.75 L2.36945299,7.75 L1.99508929,7.75 C1.44571315,7.75 1,8.19689814 1,8.74997165 L1,9.25002835 C1,9.80651727 1.44337441,10.25 1.99508929,10.25 L2.36945299,10.25 L3.08619542,10.25 L3.3164479,10.9287514 C3.40071107,11.1771472 3.50122822,11.4194229 3.61726015,11.6542123 L3.93502561,12.2972074 L3.42786803,12.804365 L3.16289666,13.0693364 C2.77442907,13.457804 2.77526698,14.0889755 3.16634901,14.4800575 L3.51994249,14.833651 C3.91343958,15.2271481 4.54054228,15.2272247 4.93066361,14.8371033 L5.19563498,14.572132 L5.70279257,14.0649744 L6.3457877,14.3827398 C6.58057713,14.4987718 6.82285277,14.5992889 7.07124857,14.6835521 L7.75,14.9138046 L7.75,15.630547 L7.75,16.0049107 C7.75,16.5542868 8.19689814,17 8.74997165,17 L9.25002835,17 C9.80651727,17 10.25,16.5566256 10.25,16.0049107 L10.25,15.630547 L10.25,14.9138046 L10.9287514,14.6835521 C11.1771472,14.5992889 11.4194229,14.4987718 11.6542123,14.3827398 L12.2972074,14.0649744 L12.804365,14.572132 L13.0693364,14.8371033 C13.457804,15.2255709 14.0889755,15.224733 14.4800575,14.833651 L14.833651,14.4800575 C15.2271481,14.0865604 15.2272247,13.4594577 14.8371033,13.0693364 L14.572132,12.804365 L14.0649744,12.2972074 L14.3827398,11.6542123 C14.4987718,11.4194229 14.5992889,11.1771472 14.6835521,10.9287514 L14.9138046,10.25 L15.630547,10.25 L16.0049107,10.25 C16.5542868,10.25 17,9.80310186 17,9.25002835 L17,8.74997165 C17,8.19348273 16.5566256,7.75 16.0049107,7.75 L15.630547,7.75 L14.9138046,7.75 L14.6835521,7.07124857 C14.5992889,6.82285277 14.4987718,6.58057713 14.3827398,6.3457877 L14.0649744,5.70279257 L14.572132,5.19563498 L14.8371033,4.93066361 C15.2255709,4.54219602 15.224733,3.91102452 14.833651,3.51994249 L14.4800575,3.16634901 C14.0865604,2.77285192 13.4594577,2.77277533 13.0693364,3.16289666 L12.804365,3.42786803 L12.2972074,3.93502561 L11.6542123,3.61726015 Z M12.0972582,2.72076124 L12.0972582,2.72076124 L12.0972582,2.72076124 L12.3622296,2.45578988 C13.1413604,1.67665905 14.4016277,1.67370567 15.1871643,2.45924223 L15.5407578,2.81283571 C16.3217953,3.59387322 16.3237717,4.85820886 15.5442101,5.63777039 L15.2792388,5.90274176 C15.4140763,6.17558421 15.5316545,6.45847906 15.630547,6.75 L16.0049107,6.75 C17.1067681,6.75 18,7.63905519 18,8.74997165 L18,9.25002835 C18,10.3545822 17.1073772,11.25 16.0049107,11.25 L15.630547,11.25 C15.5316545,11.5415209 15.4140763,11.8244158 15.2792388,12.0972582 L15.5442101,12.3622296 C16.323341,13.1413604 16.3262943,14.4016277 15.5407578,15.1871643 L15.1871643,15.5407578 C14.4061268,16.3217953 13.1417911,16.3237717 12.3622296,15.5442101 L12.0972582,15.2792388 C11.8244158,15.4140763 11.5415209,15.5316545 11.25,15.630547 L11.25,16.0049107 C11.25,17.1067681 10.3609448,18 9.25002835,18 L8.74997165,18 C7.64541781,18 6.75,17.1073772 6.75,16.0049107 L6.75,15.630547 C6.45847906,15.5316545 6.17558421,15.4140763 5.90274176,15.2792388 L5.63777039,15.5442101 C4.85863956,16.323341 3.59837227,16.3262943 2.81283571,15.5407578 L2.45924223,15.1871643 C1.67820472,14.4061268 1.67622835,13.1417911 2.45578988,12.3622296 L2.72076124,12.0972582 C2.58592367,11.8244158 2.46834548,11.5415209 2.36945299,11.25 L1.99508929,11.25 C0.893231902,11.25 0,10.3609448 0,9.25002835 L0,8.74997165 C0,7.64541781 0.892622799,6.75 1.99508929,6.75 L2.36945299,6.75 C2.46834548,6.45847906 2.58592367,6.17558421 2.72076124,5.90274176 L2.45578988,5.63777039 C1.67665905,4.85863956 1.67370567,3.59837227 2.45924223,2.81283571 L2.81283571,2.45924223 C3.59387322,1.67820472 4.85820886,1.67622835 5.63777039,2.45578988 L5.90274176,2.72076124 C6.17558421,2.58592367 6.45847906,2.46834548 6.75,2.36945299 L6.75,1.99508929 C6.75,0.893231902 7.63905519,0 8.74997165,0 L9.25002835,0 C10.3545822,0 11.25,0.892622799 11.25,1.99508929 L11.25,2.36945299 C11.5415209,2.46834548 11.8244158,2.58592367 12.0972582,2.72076124 L12.0972582,2.72076124 Z" id="Path"></path>
                    </g>
                </g>
            </g>
        </g>
    </g>
</svg>