<?xml version="1.0" encoding="UTF-8" standalone="no"?>
<svg width="16px" height="16px" viewBox="0 0 16 16" version="1.1" xmlns="http://www.w3.org/2000/svg" xmlns:xlink="http://www.w3.org/1999/xlink">
    <!-- Generator: Sketch 3.6 (26304) - http://www.bohemiancoding.com/sketch -->
    <title>sousuo</title>
    <desc>Created with Sketch.</desc>
    <defs></defs>
    <g id="Page-1" stroke="none" stroke-width="1" fill="none" fill-rule="evenodd">
        <g id="icon" transform="translate(-278.000000, -738.000000)" fill="#36434D">
            <g id="Group-4" transform="translate(102.000000, 560.000000)">
                <g id="Group-3">
                    <g id="sousuo" transform="translate(176.000000, 178.000000)">
                        <path d="M10.1556989,12.104229 L10.1556989,12.104229 L10.8292796,11.6867535 L11.3896256,12.2471186 L13.9607608,14.8183416 C14.2023001,15.059889 14.5837217,15.0600191 14.8218027,14.8219301 C15.0605439,14.5831807 15.0594352,14.2019915 14.8182143,13.9607624 L12.2471123,11.3895728 L11.6867887,10.8292301 L12.1042442,10.1556743 C12.6869541,9.21548398 13,8.13203384 13,7 C13,3.6862915 10.3137085,1 7,1 C3.6862915,1 1,3.6862915 1,7 C1,10.3137085 3.6862915,13 7,13 C8.13204382,13 9.21550305,12.6869486 10.1556989,12.104229 L10.1556989,12.104229 Z M10.6825068,12.9542134 C9.61275632,13.617229 8.35107864,14 7,14 C3.13400675,14 0,10.8659932 0,7 C0,3.13400675 3.13400675,0 7,0 C10.8659932,0 14,3.13400675 14,7 C14,8.35106655 13.6172359,9.61273375 12.9542312,10.6824781 L15.5253331,13.2536677 C16.1546251,13.8829812 16.1606052,14.8973196 15.5289215,15.5290248 C14.9016113,16.1563564 13.8870071,16.158823 13.253642,15.5254363 L10.6825068,12.9542134 L10.6825068,12.9542134 L10.6825068,12.9542134 Z" id="16"></path>
                        <path d="M7,11 C9.209139,11 11,9.209139 11,7 C11,4.790861 9.209139,3 7,3 C4.790861,3 3,4.790861 3,7 C3,9.209139 4.790861,11 7,11 L7,11 L7,11 Z M7,12 L7,12 C4.23857625,12 2,9.76142375 2,7 C2,4.23857625 4.23857625,2 7,2 C9.76142375,2 12,4.23857625 12,7 C12,9.76142375 9.76142375,12 7,12 L7,12 Z" id="Path"></path>
                    </g>
                </g>
            </g>
        </g>
    </g>
</svg>