<?xml version="1.0" encoding="UTF-8" standalone="no"?>
<svg width="16px" height="16px" viewBox="0 0 16 16" version="1.1" xmlns="http://www.w3.org/2000/svg" xmlns:xlink="http://www.w3.org/1999/xlink">
    <!-- Generator: Sketch 3.6 (26304) - http://www.bohemiancoding.com/sketch -->
    <title>suoyou</title>
    <desc>Created with Sketch.</desc>
    <defs></defs>
    <g id="Page-1" stroke="none" stroke-width="1" fill="none" fill-rule="evenodd">
        <g id="icon" transform="translate(-254.000000, -746.000000)" fill="#36434D">
            <g id="Group-4" transform="translate(102.000000, 560.000000)">
                <g id="Group-3">
                    <g id="suoyou" transform="translate(152.000000, 186.000000)">
                        <path d="M12.9877528,10.8433497 L12.9877528,10.4291362 L13.2806461,10.136243 L14.7051264,8.71176263 C15.0983019,8.31858707 15.0982805,7.68139147 14.7051264,7.28823737 L8.71176263,1.29487362 C8.31858707,0.901698065 7.68139147,0.901719524 7.28823737,1.29487362 L1.29487362,7.28823737 C0.901698065,7.68141293 0.901719524,8.31860853 1.29487362,8.71176263 L2.70535719,10.1222462 L2.9982504,10.4151394 L2.9982504,10.829353 L2.9982504,13.9957288 C2.9982504,14.535994 3.45068488,14.9860032 4.00502355,14.9860032 L11.9809797,14.9860032 C12.5372841,14.9860032 12.9877528,14.5396526 12.9877528,13.9957288 L12.9877528,10.8433497 Z M13.9877528,13.9957288 C13.9877528,15.094927 13.0865915,15.9860032 11.9809797,15.9860032 L4.00502355,15.9860032 C2.89671334,15.9860032 1.9982504,15.0866145 1.9982504,13.9957288 L1.9982504,10.829353 L0.587766836,9.41886941 C-0.1958531,8.63524947 -0.195991454,7.36488888 0.587766836,6.58113059 L6.58113059,0.587766836 C7.36475053,-0.1958531 8.63511112,-0.195991454 9.41886941,0.587766836 L15.4122332,6.58113059 C16.1958531,7.36475053 16.1959915,8.63511112 15.4122332,9.41886941 L13.9877528,10.8433497 L13.9877528,13.9957288 Z" id="icon首页"></path>
                        <path d="M8.96736607,15.7498428 C8.98892314,15.6664086 9,15.5795261 9,15.4901376 L9,12.0098624 C9,11.445228 8.55542189,11 8,11 C7.44437848,11 7,11.4477607 7,12.0098624 L7,15.4901376 C7,15.5802427 7.01105267,15.6674308 7.0325206,15.750894 L6.06404437,15 L9.93557131,15 L8.96736607,15.7498428 Z M6,15.4901376 L6,12.0098624 C6,10.899846 6.88772964,10 8,10 C9.1045695,10 10,10.8898005 10,12.0098624 L10,15.4901376 C10,15.5112668 6,15.6454992 6,15.4901376 Z" id="Combined-Shape"></path>
                    </g>
                </g>
            </g>
        </g>
    </g>
</svg>