<?xml version="1.0" encoding="UTF-8" standalone="no"?>
<svg width="18px" height="14px" viewBox="0 0 18 14" version="1.1" xmlns="http://www.w3.org/2000/svg" xmlns:xlink="http://www.w3.org/1999/xlink">
    <!-- Generator: Sketch 3.6 (26304) - http://www.bohemiancoding.com/sketch -->
    <title>tongzhi</title>
    <desc>Created with Sketch.</desc>
    <defs></defs>
    <g id="Page-1" stroke="none" stroke-width="1" fill="none" fill-rule="evenodd">
        <g id="icon" transform="translate(-332.000000, -731.000000)" fill="#414D57">
            <g id="Group-4" transform="translate(102.000000, 560.000000)">
                <g id="Group-3">
                    <g id="tongzhi" transform="translate(239.000000, 178.000000) scale(1, -1) rotate(-180.000000) translate(-239.000000, -178.000000) translate(230.000000, 171.000000)">
                        <path d="M1,2.00585866 L1,2.00585866 L1,11.9941413 C1,12.5514374 1.44630695,13 1.99508929,13 L16.0049107,13 C16.5536259,13 17,12.5511217 17,11.9941413 L17,2.00585866 C17,1.44856259 16.553693,1 16.0049107,1 L1.99508929,1 C1.44637411,1 1,1.44887827 1,2.00585866 L1,2.00585866 Z M-2.58637556e-12,2.00585866 C-2.58637556e-12,0.898053512 0.892622799,-3.69482223e-13 1.99508929,-3.69482223e-13 L16.0049107,-3.69482223e-13 C17.1067681,-3.69482223e-13 18,0.897060126 18,2.00585866 L18,11.9941413 C18,13.1019465 17.1073772,14 16.0049107,14 L1.99508929,14 C0.893231902,14 -2.58637556e-12,13.1029399 -2.58637556e-12,11.9941413 L-2.58637556e-12,2.00585866 L-2.58637556e-12,2.00585866 Z" id="Rectangle-58"></path>
                        <path d="M8.54998779,7.5 C8.41191661,7.26085369 8.4998637,6.95158889 8.73337793,6.81676938 L14.7948009,3.31720521 C15.0341556,3.17901367 15.3441578,3.26784768 15.478191,3.5 L15.478191,3.5 C15.6162622,3.73914631 15.5283151,4.04841111 15.2948009,4.18323062 L9.23337793,7.68279479 C8.99402317,7.82098633 8.684021,7.73215232 8.54998779,7.5 L8.54998779,7.5 L8.54998779,7.5 Z" id="Rectangle-59"></path>
                        <path d="M2.5,3.5 C2.63807119,3.26085369 2.9498759,3.18238571 3.18339014,3.31720521 L9.24481309,6.81676938 C9.48416785,6.95496092 9.56223643,7.26784768 9.42820323,7.5 L9.42820323,7.5 C9.29013204,7.73914631 8.97832733,7.81761429 8.74481309,7.68279479 L2.68339014,4.18323062 C2.44403538,4.04503908 2.3659668,3.73215232 2.5,3.5 L2.5,3.5 L2.5,3.5 Z" id="Rectangle-59"></path>
                    </g>
                </g>
            </g>
        </g>
    </g>
</svg>